<svg xmlns="http://www.w3.org/2000/svg" viewBox="0 0 520 360" fill="none">
  <defs>
    <linearGradient id="navy" x1="0" y1="0" x2="0" y2="1">
      <stop offset="0%" stop-color="#314056"/>
      <stop offset="100%" stop-color="#111827"/>
    </linearGradient>
    <linearGradient id="orange" x1="0" y1="0" x2="1" y2="1">
      <stop offset="0%" stop-color="#FFC2A4"/>
      <stop offset="50%" stop-color="#FF6B35"/>
      <stop offset="100%" stop-color="#E4572E"/>
    </linearGradient>
    <linearGradient id="cream" x1="0" y1="0" x2="0" y2="1">
      <stop offset="0%" stop-color="#FFFFFF"/>
      <stop offset="100%" stop-color="#FFF0E8"/>
    </linearGradient>
    <radialGradient id="hub" cx="38%" cy="32%" r="65%">
      <stop offset="0%" stop-color="#FFFFFF"/>
      <stop offset="100%" stop-color="#D5D8DE"/>
    </radialGradient>
    <linearGradient id="glass" x1="0" y1="0" x2="1" y2="1">
      <stop offset="0%" stop-color="#E7F7F9"/>
      <stop offset="100%" stop-color="#18B6C9"/>
    </linearGradient>
    <filter id="lift" x="-20%" y="-20%" width="140%" height="150%">
      <feDropShadow dx="0" dy="16" stdDeviation="8" flood-color="#111827" flood-opacity="0.16"/>
    </filter>
  </defs>
  <ellipse cx="260" cy="314" rx="170" ry="16" fill="#111827" opacity="0.08"/>
  <g filter="url(#lift)">
    <ellipse cx="150" cy="292" rx="30" ry="17" fill="#111827"/>
    <ellipse cx="150" cy="284" rx="22" ry="12" fill="#374151"/>
    <ellipse cx="150" cy="280" rx="9" ry="5.5" fill="url(#hub)"/>
    <ellipse cx="250" cy="298" rx="30" ry="17" fill="#111827"/>
    <ellipse cx="250" cy="290" rx="22" ry="12" fill="#374151"/>
    <ellipse cx="250" cy="286" rx="9" ry="5.5" fill="url(#hub)"/>
    <ellipse cx="390" cy="276" rx="26" ry="15" fill="#111827"/>
    <ellipse cx="390" cy="268" rx="19" ry="11" fill="#374151"/>
    <ellipse cx="390" cy="264" rx="8" ry="5" fill="url(#hub)"/>
    <polygon points="78,118 248,78 292,102 122,144" fill="url(#cream)"/>
    <polygon points="78,118 122,144 122,236 78,210" fill="#F3E4DA"/>
    <polygon points="122,144 292,102 292,194 122,236" fill="#FFF9F5"/>
    <polygon points="96,168 250,128 250,142 96,182" fill="url(#orange)"/>
    <polygon points="292,102 360,84 400,106 332,126" fill="url(#navy)"/>
    <polygon points="292,102 332,126 332,196 292,172" fill="#1B2433"/>
    <polygon points="332,126 400,106 400,176 332,196" fill="#243044"/>
    <polygon points="342,120 384,108 384,142 342,154" fill="url(#glass)"/>
    <circle cx="394" cy="164" r="4.5" fill="#FFB088"/>
  </g>
</svg>
