<svg xmlns="http://www.w3.org/2000/svg" viewBox="0 0 320 200" fill="none">
  <defs>
    <linearGradient id="orange" x1="0" y1="0" x2="1" y2="1">
      <stop offset="0%" stop-color="#FFC2A4"/><stop offset="100%" stop-color="#FF6B35"/>
    </linearGradient>
    <filter id="s" x="-15%" y="-15%" width="140%" height="150%">
      <feDropShadow dx="0" dy="10" stdDeviation="6" flood-color="#111827" flood-opacity="0.14"/>
    </filter>
  </defs>
  <g filter="url(#s)">
    <polygon points="36,110 70,94 92,106 58,122" fill="#FFFFFF"/>
    <polygon points="36,110 58,122 58,168 36,156" fill="#F4F7FB"/>
    <polygon points="58,122 92,106 92,152 58,168" fill="#E5EDF5"/>
    <polygon points="108,78 168,52 204,72 144,98" fill="url(#orange)"/>
    <polygon points="108,78 144,98 144,168 108,148" fill="#E4572E"/>
    <polygon points="144,98 204,72 204,142 144,168" fill="#FF8A5B"/>
    <polygon points="214,96 258,76 286,92 242,112" fill="#FFFFFF"/>
    <polygon points="214,96 242,112 242,168 214,152" fill="#F7FBFF"/>
    <polygon points="242,112 286,92 286,148 242,168" fill="#E7EEF5"/>
    <polygon points="250,124 274,114 274,136 250,146" fill="#18B6C9" opacity="0.8"/>
  </g>
</svg>
