<svg xmlns="http://www.w3.org/2000/svg" viewBox="0 0 320 200" fill="none">
  <path d="M36 150 C 80 70, 120 150, 168 96 S 250 50, 292 88" stroke="#111827" stroke-width="3" stroke-linecap="round" opacity="0.35"/>
  <path d="M36 150 C 80 70, 120 150, 168 96 S 250 50, 292 88" stroke="#FF6B35" stroke-width="3" stroke-linecap="round" stroke-dasharray="7 7"/>
  <g>
    <path d="M36 118 c0-14 8-22 14-32 5 10 14 18 14 32a14 14 0 0 1-28 0z" fill="#18B6C9"/>
    <circle cx="50" cy="116" r="4" fill="#fff"/>
    <path d="M154 64 c0-14 8-22 14-32 5 10 14 18 14 32a14 14 0 0 1-28 0z" fill="#FF6B35"/>
    <circle cx="168" cy="62" r="4" fill="#fff"/>
    <path d="M276 56 c0-14 8-22 14-32 5 10 14 18 14 32a14 14 0 0 1-28 0z" fill="#111827"/>
    <circle cx="290" cy="54" r="4" fill="#fff"/>
  </g>
</svg>
